<svg xmlns="http://www.w3.org/2000/svg" version="1.1" xmlns:xlink="http://www.w3.org/1999/xlink" xmlns:svgjs="http://svgjs.com/svgjs" width="512" height="512" x="0" y="0" viewBox="0 0 64 64" style="enable-background:new 0 0 512 512" xml:space="preserve" class=""><g><path d="M4 16h14.001a3 3 0 0 1 3 3v11.001a3 3 0 0 1-3 3h-14a3 3 0 0 1-3.001-3v-11a3 3 0 0 1 3-3z" fill="#ffffff" data-original="#000000" class=""></path><circle cx="33.002" cy="7" r="5" fill="#ffffff" data-original="#000000" class=""></circle><path d="M12.003 35.852a5.917 5.917 0 0 0 1.7 4.15H29.96v-4.155a.996.996 0 0 0-.996-.996H12.998a1 1 0 0 0-.995 1.001z" fill="#ffffff" data-original="#000000" class=""></path><path d="M61.737 51.359a8.13 8.13 0 0 0-8.322-5.994 7.038 7.038 0 0 0 .24-1.791A5.925 5.925 0 0 0 51 38.75c-2.147-1.425-3.753-5.048-3.996-8.858h1.916a2.99 2.99 0 0 0 2.991-2.982v-1.986a2.99 2.99 0 0 0-2.991-2.982h-6.84c-5.782-1.665-7.522-3.583-8.561-4.732a7.382 7.382 0 0 1-.063-.07 3.706 3.706 0 0 0-2.018-3.813 3.64 3.64 0 0 0-5.122 2.497l-2.869 13.71a2.983 2.983 0 0 0 2.598 3.571l4.917.544a.994.994 0 0 1 .887 1.043l-.774 13.106a5.273 5.273 0 0 1-1.477-5.796H14.313c-1.612 2.671-4.193 7.679-3.149 10.936a4.04 4.04 0 0 0 2.609 2.622 3.726 3.726 0 0 0 1.39.15 6.406 6.406 0 0 0 12.78 0h17.14a1.262 1.262 0 0 0 .875-.423 6.997 6.997 0 0 0 .587 1.703.996.996 0 0 0 1.716.14c.117-.168.243-.33.376-.491a6.4 6.4 0 1 0 12.484-2.718.986.986 0 0 0 .875-1.075 7.763 7.763 0 0 0-.26-1.487zm-40.184 8.318a4.407 4.407 0 0 1-4.385-3.967h8.77a4.407 4.407 0 0 1-4.385 3.967zM40.94 48.754h-3.885l1.718-16.24a2.982 2.982 0 0 0-1.926-3.104l-4.9-1.829a.992.992 0 0 1-.622-1.149l.745-3.215a17.078 17.078 0 0 0 8.87 3.633zm14.586 11.218a4.413 4.413 0 0 1-4.961-4.86l.304-.38a11.083 11.083 0 0 1 7.676-1.51l.236.183a4.4 4.4 0 0 1-3.255 6.567z" fill="#ffffff" data-original="#000000" class=""></path></g></svg>